<?xml version="1.0" encoding="utf-8"?>
<!-- Generator: Adobe Illustrator 16.0.4, SVG Export Plug-In . SVG Version: 6.00 Build 0)  -->
<!DOCTYPE svg PUBLIC "-//W3C//DTD SVG 1.1//EN" "http://www.w3.org/Graphics/SVG/1.1/DTD/svg11.dtd">
<svg version="1.1" xmlns="http://www.w3.org/2000/svg" xmlns:xlink="http://www.w3.org/1999/xlink" x="0px" y="0px" width="110px"
	 height="110px" viewBox="0 0 110 110" enable-background="new 0 0 110 110" xml:space="preserve">
<g id="Bilde">
</g>
<g id="Dim">
</g>
<g id="Bunn">
</g>
<g id="Menyfelt">
</g>
<g id="Innhold">
	<g>
		<g>
			<path fill="#FFFFFF" d="M14.455,42.529v34.654L62,104.125V69.537L14.455,42.529z M24.795,70.896L24.783,57.16l26.928,15.115
				l-0.004,13.797L24.795,70.896z"/>
			<polygon fill="#FFFFFF" points="74.652,65.107 74.658,86.578 83.484,81.783 83.516,60.211 			"/>
			<polygon fill="#FFFFFF" points="95.061,51.668 90.229,48.877 90.209,83.674 67.016,96.627 66.986,102.234 95.047,86.447 			"/>
			<path fill="#FFFFFF" d="M80.695,37.918l14.525,8.236l2.348-4.162L73.816,28.475l0.018-7.729l-6.902-4.049l-6.898,3.914
				L37.594,7.771c-2.682-1.533-6.305-0.705-8.047,1.84l-17.842,25.75l50.756,29.029L80.695,37.918z M60.072,39.258l-0.014-18.656
				l6.885,3.801L66.92,43.043L60.072,39.258z"/>
		</g>
	</g>
</g>
<g id="Mobiltopp">
</g>
<g id="LOGG_UT" display="none">
</g>
<g id="Baseline" display="none">
</g>
</svg>
