<?xml version="1.0" encoding="utf-8"?>
<!-- Generator: Adobe Illustrator 16.0.4, SVG Export Plug-In . SVG Version: 6.00 Build 0)  -->
<!DOCTYPE svg PUBLIC "-//W3C//DTD SVG 1.1//EN" "http://www.w3.org/Graphics/SVG/1.1/DTD/svg11.dtd">
<svg version="1.1" xmlns="http://www.w3.org/2000/svg" xmlns:xlink="http://www.w3.org/1999/xlink" x="0px" y="0px" width="110px"
	 height="110px" viewBox="0 0 110 110" enable-background="new 0 0 110 110" xml:space="preserve">
<g id="Bilde">
</g>
<g id="Dim">
</g>
<g id="Bunn">
</g>
<g id="Menyfelt">
</g>
<g id="Innhold">
	<g>
		<path fill="#FFFFFF" d="M18.701,51.197L34.234,29.26l30.486-17.531c0.705-0.398,1.41-0.592,2.109-0.682
			C66.225,8.951,64.49,7.5,62.303,7.5c-0.926,0-1.85,0.258-2.783,0.777L29.033,25.812L13.5,47.748v43.428
			c0,2.943,2.049,5.168,4.771,5.168c0.223,0,0.445-0.061,0.668-0.088c-0.145-0.51-0.238-1.051-0.238-1.635V51.197z"/>
		<polygon fill="#FFFFFF" points="55.863,38.941 48.033,43.426 48.033,47.15 55.863,42.578 		"/>
		<polygon fill="#FFFFFF" points="65.801,33.156 58.467,37.457 58.467,41.131 65.801,36.863 		"/>
		<polygon fill="#FFFFFF" points="65.801,42.008 48.033,52.234 48.033,55.732 65.801,45.508 		"/>
		<path fill="#FFFFFF" d="M41.078,88.865l-11.832,6.803V56.594h13.676V37.203l0.025-0.941l28.057-16.215v22.385l5.254-3.006V18.646
			c0-2.615-1.73-4.512-4.119-4.512c-0.812,0-1.629,0.227-2.455,0.688L39.322,32.283l-15.33,21.65v43.221
			c0,2.611,1.73,4.508,4.117,4.508h0.002c0.814,0,1.633-0.225,2.459-0.686l41.705-23.99c2.271-1.271,3.982-4.191,3.982-6.793v-1.455
			l-35.18,20.141V88.865z"/>
		<path fill="#FFFFFF" d="M98.592,41.467c-2.139-3.672-6.848-4.91-10.523-2.77l-7.965,4.605c3.676-2.146,8.385-0.902,10.523,2.771
			c2.141,3.672,0.898,8.381-2.773,10.52l7.963-4.6C99.49,49.852,100.732,45.141,98.592,41.467z"/>
		<path fill="#FFFFFF" d="M52.941,76.879l-0.191,0.115C52.947,76.896,52.764,76.986,52.941,76.879z"/>
		<path fill="#FFFFFF" d="M75.697,45.867L45.213,63.572c3.666-2.127,8.371-0.889,10.512,2.781c2.139,3.672,0.893,8.381-2.777,10.52
			c-0.004,0.006-0.004,0.006-0.006,0.006l30.504-17.717c3.672-2.137,4.914-6.85,2.777-10.518
			C84.082,44.969,79.371,43.729,75.697,45.867z"/>
		<path fill="#FFFFFF" d="M50.275,69.686c-1.365-2.342-4.371-3.135-6.713-1.771c-0.422,0.244-0.777,0.562-1.096,0.902l-0.014-0.029
			l-0.133,0.189c-0.234,0.273-0.439,0.564-0.604,0.877l-4.643,6.721l8.668,0.469c0,0,0.818,0.014,1.336-0.115l0.117,0.004
			l-0.018-0.027c0.457-0.109,0.904-0.26,1.328-0.508C50.848,75.031,51.635,72.025,50.275,69.686z"/>
	</g>
</g>
<g id="Mobiltopp">
</g>
<g id="LOGG_UT" display="none">
</g>
<g id="Baseline" display="none">
</g>
</svg>
