<?xml version="1.0" encoding="utf-8"?>
<!-- Generator: Adobe Illustrator 16.0.4, SVG Export Plug-In . SVG Version: 6.00 Build 0)  -->
<!DOCTYPE svg PUBLIC "-//W3C//DTD SVG 1.1//EN" "http://www.w3.org/Graphics/SVG/1.1/DTD/svg11.dtd">
<svg version="1.1" xmlns="http://www.w3.org/2000/svg" xmlns:xlink="http://www.w3.org/1999/xlink" x="0px" y="0px" width="110px"
	 height="110px" viewBox="0 0 110 110" enable-background="new 0 0 110 110" xml:space="preserve">
<g id="Bilde">
</g>
<g id="Dim">
</g>
<g id="Bunn">
</g>
<g id="Menyfelt">
</g>
<g id="Innhold">
	<g>
		<g>
			<path fill="#FFFFFF" d="M60.475,62.197c1.176-2.496,3.043-4.768,5.15-5.975l23.973-13.734L65.148,28.875
				c-7.477-3.66-9.824-1.971-12.084-0.908c-2.264,1.072-14.434,8.559-20.309,11.879c-1.969,1.113-3.25,2.674-4.102,4.256
				L60.475,62.197z"/>
		</g>
		<g>
			<polygon fill="#FFFFFF" points="59.182,84.754 59.197,67.598 16.143,43.074 16.115,60.211 			"/>
		</g>
		<g>
			<path fill="#FFFFFF" d="M10.59,40.264v-0.482h0.029c0.162-2,1.031-7.164,5.705-9.811c5.879-3.324,18.469-11.064,20.756-12.074
				c2.426-1.076,5.15-0.963,7.654-0.182l0.008-8.553c0.008-4.066-2.873-5.738-6.393-3.715L11.008,21.135
				c-3.525,2.02-6.418,7-6.428,11.062l0.01,38.215l5.998,3.422L10.59,40.264z"/>
		</g>
		<path fill="#FFFFFF" d="M104.955,47.279c0.008-4.064-2.871-5.736-7.139-2.979L70.449,59.826c-2.787,1.277-5.68,6.256-5.688,10.32
			v34.604l5.641-3.139l0.023-17.707L99.32,67.322l-0.029,17.986l5.664-3.129V47.279z"/>
	</g>
</g>
<g id="Mobiltopp">
</g>
<g id="LOGG_UT" display="none">
</g>
<g id="Baseline" display="none">
</g>
</svg>
