<?xml version="1.0" encoding="utf-8"?>
<!-- Generator: Adobe Illustrator 16.0.4, SVG Export Plug-In . SVG Version: 6.00 Build 0)  -->
<!DOCTYPE svg PUBLIC "-//W3C//DTD SVG 1.1//EN" "http://www.w3.org/Graphics/SVG/1.1/DTD/svg11.dtd">
<svg version="1.1" xmlns="http://www.w3.org/2000/svg" xmlns:xlink="http://www.w3.org/1999/xlink" x="0px" y="0px" width="91px"
	 height="32px" viewBox="0 0 91 32" enable-background="new 0 0 91 32" xml:space="preserve">
<g id="Bilde">
</g>
<g id="Dim">
</g>
<g id="Bunn">
</g>
<g id="Menyfelt">
</g>
<g id="Innhold">
	<g>
		<g>
			<g>
				<path fill="#FFFFFF" d="M10.639,30.617H1V8.734h8.677c4.617,0,6.726,1.83,6.726,5.984c0,2.076-0.96,3.377-2.324,4.184
					c1.799,0.869,3.099,2.725,3.099,4.895C17.177,28.199,15.195,30.617,10.639,30.617z M8.996,12.361H5.214v5.084h4.463
					c1.582,0,2.294-0.961,2.294-2.418C11.971,13.168,11.506,12.361,8.996,12.361z M9.462,20.854H5.214v6.139h4.555
					c2.295,0,2.976-0.623,2.976-2.885C12.744,22.189,11.909,20.854,9.462,20.854z"/>
				<path fill="#FFFFFF" d="M32.725,30.598l-1.241-4.215h-6.973l-1.239,4.215h-4.464l7.067-21.818h4.216l7.032,21.818H32.725z
					 M29.376,19.16l-1.393-5.486L26.62,19.16l-1.056,3.719h4.868L29.376,19.16z"/>
				<path fill="#FFFFFF" d="M45.836,31c-2.573,0-4.185-0.682-7.252-2.076l1.674-3.5c2.851,1.395,4.09,1.732,5.794,1.732
					c3.068,0,4.031-1.145,4.031-2.387c0-1.578-1.955-2.385-3.628-3.004c-3.285-1.18-7.439-2.389-7.439-6.662
					c0-5.146,3.998-6.666,8.214-6.666c1.829,0,4.028,0.619,6.757,2.17l-1.768,3.469c-2.539-1.238-3.751-1.641-5.206-1.641
					c-2.727,0-3.596,1.238-3.596,2.172c0,1.236,0.776,1.949,3.874,3.064c2.885,1.057,7.13,2.543,7.13,6.418
					C54.421,28.678,51.258,31,45.836,31z"/>
				<path fill="#FFFFFF" d="M57.427,30.617V8.768h13.668v3.812h-9.449v4.648h7.683v3.752h-7.683v5.824h9.449v3.812H57.427z"/>
				<path fill="#FFFFFF" d="M85.85,30.617l-6.416-10.818l-1.518-3.16l0.186,4.988v8.99h-4.247V8.768h3.658l6.445,10.971l1.425,3.008
					l-0.123-4.99l-0.03-8.988h4.245v21.85H85.85z"/>
			</g>
		</g>
	</g>
	<g>
		<rect x="1" y="1" fill="#FFFFFF" width="89" height="4"/>
	</g>
</g>
<g id="Mobiltopp">
</g>
<g id="LOGG_UT" display="none">
</g>
<g id="Baseline" display="none">
</g>
</svg>
