<?xml version="1.0" encoding="utf-8"?>
<!-- Generator: Adobe Illustrator 16.0.0, SVG Export Plug-In . SVG Version: 6.00 Build 0)  -->
<!DOCTYPE svg PUBLIC "-//W3C//DTD SVG 1.1//EN" "http://www.w3.org/Graphics/SVG/1.1/DTD/svg11.dtd">
<svg version="1.1" id="Layer_1" xmlns="http://www.w3.org/2000/svg" xmlns:xlink="http://www.w3.org/1999/xlink" x="0px" y="0px"
	  viewBox="165.14 280.722 269 268.723" enable-background="new 165.14 280.722 269 268.723"
	 xml:space="preserve" preserveAspectRatio="xMidYMid">
<g>
	<g>
		<path fill="#FFFFFF" d="M172.81,516.482h13.432v2.701h-10.213v8.287h9.436v2.664h-9.436v11.287h-3.219V516.482L172.81,516.482z"/>
		<path fill="#FFFFFF" d="M212.883,528.693c0,8.584-5.217,13.137-11.582,13.137c-6.586,0-11.212-5.107-11.212-12.656
			c0-7.918,4.921-13.098,11.582-13.098C208.479,516.076,212.883,521.292,212.883,528.693z M193.531,529.099
			c0,5.328,2.886,10.104,7.956,10.104c5.106,0,7.992-4.701,7.992-10.361c0-4.959-2.59-10.139-7.955-10.139
			C196.195,518.703,193.531,523.625,193.531,529.099z"/>
		<path fill="#FFFFFF" d="M217.802,516.816c1.628-0.334,3.959-0.52,6.18-0.52c3.441,0,5.661,0.629,7.215,2.035
			c1.258,1.109,1.961,2.811,1.961,4.736c0,3.293-2.072,5.477-4.7,6.363v0.111c1.924,0.666,3.071,2.441,3.664,5.031
			c0.814,3.479,1.406,5.885,1.924,6.846h-3.33c-0.407-0.703-0.962-2.85-1.665-5.957c-0.74-3.439-2.072-4.736-4.996-4.848h-3.034
			v10.805h-3.219V516.816z M221.021,528.173h3.293c3.441,0,5.625-1.887,5.625-4.736c0-3.219-2.332-4.625-5.735-4.66
			c-1.554,0-2.665,0.146-3.183,0.295V528.173z"/>
		<path fill="#FFFFFF" d="M238.004,537.5c1.443,0.889,3.552,1.629,5.772,1.629c3.293,0,5.217-1.74,5.217-4.256
			c0-2.332-1.332-3.664-4.699-4.959c-4.07-1.443-6.586-3.551-6.586-7.066c0-3.887,3.219-6.771,8.066-6.771
			c2.553,0,4.403,0.592,5.513,1.221l-0.888,2.629c-0.814-0.443-2.479-1.186-4.736-1.186c-3.404,0-4.7,2.035-4.7,3.736
			c0,2.332,1.518,3.48,4.958,4.812c4.218,1.627,6.365,3.662,6.365,7.326c0,3.848-2.85,7.178-8.733,7.178
			c-2.405,0-5.032-0.703-6.364-1.59L238.004,537.5z"/>
		<path fill="#FFFFFF" d="M262.905,541.421l-8.141-24.939h3.479l3.885,12.283c1.073,3.367,1.998,6.402,2.664,9.326h0.074
			c0.703-2.887,1.739-6.031,2.85-9.289l4.218-12.32h3.441l-8.917,24.939H262.905z"/>
	</g>
	<g>
		<path fill="#FFFFFF" d="M280.737,533.578l-2.59,7.844h-3.33l8.473-24.938h3.885l8.511,24.938h-3.441l-2.665-7.844H280.737z
			 M288.915,531.06l-2.442-7.178c-0.555-1.629-0.925-3.107-1.295-4.553h-0.074c-0.37,1.48-0.777,2.998-1.258,4.516l-2.442,7.215
			H288.915z"/>
		<path fill="#FFFFFF" d="M300.087,516.816c1.629-0.334,3.959-0.52,6.181-0.52c3.44,0,5.661,0.629,7.216,2.035
			c1.258,1.109,1.961,2.811,1.961,4.736c0,3.293-2.072,5.477-4.699,6.363v0.111c1.924,0.666,3.071,2.441,3.664,5.031
			c0.812,3.479,1.405,5.885,1.924,6.846h-3.33c-0.407-0.703-0.963-2.85-1.666-5.957c-0.739-3.439-2.071-4.736-4.994-4.848h-3.034
			v10.805h-3.22v-24.604H300.087z M303.308,528.173h3.293c3.441,0,5.624-1.887,5.624-4.736c0-3.219-2.331-4.625-5.735-4.66
			c-1.554,0-2.664,0.146-3.182,0.295V528.173z"/>
		<path fill="#FFFFFF" d="M320.291,537.5c1.442,0.889,3.553,1.629,5.771,1.629c3.293,0,5.218-1.74,5.218-4.256
			c0-2.332-1.333-3.664-4.7-4.959c-4.07-1.443-6.586-3.551-6.586-7.066c0-3.887,3.219-6.771,8.066-6.771
			c2.553,0,4.402,0.592,5.514,1.221l-0.889,2.629c-0.812-0.443-2.479-1.186-4.736-1.186c-3.404,0-4.699,2.035-4.699,3.736
			c0,2.332,1.519,3.48,4.959,4.812c4.219,1.627,6.365,3.662,6.365,7.326c0,3.848-2.851,7.178-8.732,7.178
			c-2.405,0-5.033-0.703-6.365-1.59L320.291,537.5z"/>
		<path fill="#FFFFFF" d="M339.714,516.816c1.406-0.297,3.627-0.52,5.884-0.52c3.22,0,5.292,0.555,6.846,1.812
			c1.296,0.963,2.072,2.441,2.072,4.402c0,2.406-1.591,4.516-4.22,5.479v0.072c2.369,0.594,5.145,2.555,5.145,6.254
			c0,2.146-0.852,3.773-2.109,4.994c-1.738,1.594-4.551,2.332-8.621,2.332c-2.221,0-3.922-0.146-4.994-0.297v-24.529H339.714z
			 M342.934,527.029h2.924c3.403,0,5.401-1.777,5.401-4.184c0-2.922-2.221-4.068-5.477-4.068c-1.479,0-2.33,0.109-2.85,0.221
			L342.934,527.029L342.934,527.029z M342.934,538.978c0.629,0.111,1.555,0.148,2.7,0.148c3.33,0,6.402-1.221,6.402-4.848
			c0-3.404-2.924-4.811-6.438-4.811h-2.664V538.978z"/>
	</g>
	<g>
		<path fill="#FFFFFF" d="M365.501,541.421v-10.584l-7.881-14.355h3.662l3.516,6.883c0.963,1.887,1.701,3.402,2.479,5.143h0.074
			c0.703-1.627,1.554-3.256,2.516-5.143l3.59-6.883h3.664l-8.363,14.318v10.621H365.501z"/>
		<path fill="#FFFFFF" d="M398.358,540.31c-1.442,0.52-4.293,1.369-7.659,1.369c-3.775,0-6.883-0.961-9.324-3.293
			c-2.146-2.072-3.479-5.4-3.479-9.287c0.037-7.438,5.144-12.877,13.506-12.877c2.888,0,5.144,0.629,6.218,1.146l-0.777,2.627
			c-1.332-0.592-2.998-1.072-5.514-1.072c-6.068,0-10.027,3.773-10.027,10.027c0,6.328,3.812,10.064,9.621,10.064
			c2.107,0,3.552-0.297,4.291-0.666v-7.438h-5.068v-2.59h8.215L398.358,540.31L398.358,540.31z"/>
	</g>
	<g>
		<path fill="#FFFFFF" d="M423.007,540.31c-1.443,0.52-4.293,1.369-7.66,1.369c-3.773,0-6.883-0.961-9.324-3.293
			c-2.146-2.072-3.479-5.4-3.479-9.287c0.037-7.438,5.144-12.877,13.506-12.877c2.887,0,5.145,0.629,6.217,1.146l-0.777,2.627
			c-1.332-0.592-2.996-1.072-5.514-1.072c-6.068,0-10.027,3.773-10.027,10.027c0,6.328,3.812,10.064,9.621,10.064
			c2.107,0,3.553-0.297,4.292-0.666v-7.438h-5.069v-2.59h8.215V540.31L423.007,540.31z"/>
	</g>
	<g>
		<g>
			<defs>
				<rect id="SVGID_1_" x="241.487" y="291.89" width="112.134" height="198.711"/>
			</defs>
			<clipPath id="SVGID_2_">
				<use xlink:href="#SVGID_1_"  overflow="visible"/>
			</clipPath>
			<path clip-path="url(#SVGID_2_)" fill="none" stroke="#FFFFFF" stroke-miterlimit="10" d="M299.638,307.959
				c3.765,0.981,6.488,4.278,6.488,8.277c0,4.71-3.832,8.528-8.562,8.528c-4.729,0-8.562-3.818-8.562-8.528
				c0-4.007,2.828-7.401,6.51-8.283c0-0.882-0.001-6.69-0.001-6.69h-4.731v-4h4.731v-5.024h4.131v5.024h4.731v4l-4.74-0.001
				C299.634,301.822,299.639,307.734,299.638,307.959 M299.638,307.959c3.765,0.981,6.488,4.278,6.488,8.277
				c0,4.71-3.832,8.528-8.562,8.528c-4.729,0-8.562-3.818-8.562-8.528c0-4.007,2.828-7.401,6.51-8.283
				c0-0.882-0.001-6.69-0.001-6.69h-4.731v-4h4.731v-5.024h4.131v5.024h4.731v4l-4.74-0.001
				C299.634,301.822,299.639,307.734,299.638,307.959L299.638,307.959z M305.852,314.089c0,0,0.313,1.183,0.276,2.16
				c0.027,0.816-0.233,1.973-0.233,1.973l-16.659,0.001c0,0-0.26-1.163-0.233-1.974c-0.043-0.954,0.277-2.16,0.277-2.16h6.231
				v-6.127c0,0,1.345-0.247,2.052-0.247c0.714,0,2.071,0.252,2.071,0.252v6.122H305.852L305.852,314.089z M305.852,314.089
				c0,0,0.313,1.183,0.276,2.16c0.027,0.816-0.233,1.973-0.233,1.973l-16.659,0.001c0,0-0.26-1.163-0.233-1.974
				c-0.043-0.954,0.277-2.16,0.277-2.16h6.231v-6.127c0,0,1.345-0.247,2.052-0.247c0.714,0,2.071,0.252,2.071,0.252v6.122H305.852
				L305.852,314.089z M295.622,335.181c1.222-0.356,2.683-0.375,3.915-0.017l0.688-10.776l-0.137,0.034c0,0-0.998,0.366-2.507,0.366
				c-1.107,0.057-2.272-0.287-2.582-0.387c-0.051-0.018-0.095-0.026-0.095-0.026L295.622,335.181L295.622,335.181z M316.865,335.866
				c1.258-0.368,2.76-0.33,3.961,0.116c1.961-13.225,5.737-15.08-20.603-11.567l-0.179,2.809
				C320.232,324.694,318.21,325.434,316.865,335.866L316.865,335.866z M256.974,337.838c-2.697-10.87-2.264-10.43,15.787-10.43
				c-0.053-1.476,0.177-2.547,0.897-3.284c-23.073,0.333-24.643-0.287-20.998,13.452
				C254.277,337.21,255.845,337.306,256.974,337.838L256.974,337.838z M322.199,327.408c18.413,0,18.614-0.261,15.961,10.43
				c1.123-0.53,2.686-0.626,4.297-0.264c3.277-12.64,3.648-13.449-21.095-13.449C322.102,324.862,322.292,325.94,322.199,327.408
				L322.199,327.408z M278.098,335.808c-1.474-10.86-2.944-10.887,16.989-8.623c-0.054-1.163-0.184-2.793-0.184-2.793
				c-25.451-3.29-23.122-2.276-20.814,11.697C275.261,335.573,276.79,335.48,278.098,335.808L278.098,335.808z M274.346,346.308
				c-9.659,9.658-9.659-12.486,0-2.827c0,0,0.241-0.243,0.387-0.388c-3.731-3.73-2.779-6.065-0.644-7.004
				c-0.043-0.258-0.455-2.625-0.535-3.073c-5.712,1.318-10.808,3.46-14.927,6.913c-0.002-0.017-0.007-0.03-0.01-0.047
				c0.171,1.069-0.25,2.47-1.542,4.188l0.496,0.497c10.43-10.892,10.43,13.398,0,2.454c-0.206,0.205-0.496,0.495-0.496,0.495
				c0.874,1.688,3.497,5.302,4.072,5.729c2.449,1.16,6.715,1.317,9.854,0c1.217-0.966,3.386-5.126,3.732-6.551
				C274.638,346.601,274.405,346.367,274.346,346.308L274.346,346.308z M295.656,343.332l0.451-0.45
				c-4.688-4.322-3.17-6.89-0.485-7.701c-0.002-0.003-0.282-4.171-0.282-4.171c-6.188,0.049-12.201,0.328-17.752,1.224
				c0,0.004,0,0.007,0.001,0.01c0.071,0.52,0.462,3.229,0.509,3.563c2.669,0.669,4.407,3.098,0.269,7.285
				c0.146,0.146,0.388,0.387,0.388,0.387c9.657-9.657,9.657,12.486,0,2.828c-0.059,0.061-0.292,0.293-0.388,0.388
				c0.346,1.424,2.987,5.584,4.204,6.55c3.17,1.219,6.338,1.082,9.366,0c1.564-1.171,3.776-5.705,4.17-7.021
				c-0.092-0.093-0.336-0.338-0.451-0.449C285.505,357.104,285.505,332,295.656,343.332L295.656,343.332z M316.423,343.479
				c0,0,0.24-0.242,0.387-0.387c-4.023-4.073-2.489-6.48,0.055-7.226c0.178-1.371,0.365-2.572,0.514-3.623
				c-4.996-0.766-10.821-1.159-17.575-1.23l-0.267,4.152c2.719,0.792,4.293,3.363-0.428,7.716l0.45,0.45
				c10.149-11.332,10.149,13.772,0,2.441c-0.112,0.112-0.356,0.356-0.45,0.449c0.395,1.316,2.605,5.852,4.169,7.021
				c3.4,1.131,6.38,1.082,9.804,0c1.217-0.966,3.383-5.126,3.729-6.551c-0.092-0.094-0.327-0.327-0.387-0.387
				C306.766,355.965,306.766,333.821,316.423,343.479L316.423,343.479z M337.558,347.02c-10.43,10.945-10.43-13.345,0-2.453
				l0.495-0.497c-1.261-1.678-1.692-3.053-1.554-4.111c-3.514-3.283-8.472-5.559-15.174-6.996c-0.168,0.933-0.341,1.938-0.5,3.021
				c2.313,0.857,3.5,3.229-0.382,7.109c0.146,0.146,0.388,0.387,0.388,0.387c9.658-9.658,9.658,12.486,0,2.828
				c-0.059,0.061-0.388,0.387-0.388,0.387c0.349,1.424,2.515,5.584,3.733,6.551c3.258,1.316,6.975,1.16,9.805,0
				c0.575-0.428,3.197-4.042,4.07-5.729C338.053,347.515,337.763,347.225,337.558,347.02L337.558,347.02z M338.757,360.383
				L338.757,360.383 M339.027,360.383c0.801-4.922,4.307-19.118,5.43-22.125c-4.897-2.301-10.887-0.147-6.404,5.812l-0.494,0.497
				c-10.43-10.892-10.43,13.398,0,2.453c0.205,0.206,0.494,0.496,0.494,0.496c-0.872,1.688-3.494,5.302-4.069,5.729
				c-2.83,1.16-6.547,1.317-9.806,0c-1.219-0.966-3.385-5.126-3.732-6.55c0,0,0.329-0.327,0.389-0.388
				c9.656,9.658,9.656-12.486,0-2.827c0,0-0.244-0.243-0.389-0.388c9.969-9.968-13.486-9.968-3.635,0
				c-0.146,0.146-0.387,0.388-0.387,0.388c-9.657-9.659-9.657,12.485,0,2.827c0.06,0.061,0.295,0.293,0.387,0.388
				c-0.346,1.424-2.514,5.584-3.729,6.55c-3.425,1.082-6.402,1.131-9.804,0c-1.562-1.171-3.774-5.705-4.169-7.021
				c0.094-0.093,0.338-0.337,0.45-0.449c10.149,11.331,10.149-13.773,0-2.441l-0.45-0.45c11.542-10.643-14.545-10.643-3.001,0
				l-0.451,0.45c-10.151-11.332-10.151,13.772,0,2.441c0.114,0.112,0.358,0.356,0.451,0.449c-0.394,1.316-2.606,5.852-4.169,7.021
				c-3.029,1.082-6.196,1.219-9.367,0c-1.216-0.966-3.858-5.126-4.204-6.55c0.095-0.095,0.329-0.327,0.387-0.388
				c9.657,9.658,9.657-12.486,0-2.827c0,0-0.242-0.243-0.387-0.388c9.852-9.968-13.603-9.968-3.634,0
				c-0.146,0.146-0.388,0.388-0.388,0.388c-9.658-9.659-9.658,12.485,0,2.827c0.059,0.061,0.292,0.293,0.388,0.388
				c-0.347,1.424-2.516,5.584-3.733,6.55c-3.137,1.317-7.404,1.16-9.853,0c-0.575-0.428-3.198-4.042-4.072-5.729
				c0,0,0.291-0.29,0.496-0.496c10.43,10.945,10.43-13.345,0-2.453l-0.496-0.497c4.485-5.959-1.504-8.112-6.401-5.812
				c1.121,3.007,5.434,22.124,5.434,22.124 M300.099,385.753l3.13-5.421l-5.675-3.276l-5.674,3.276l3.13,5.421l-19.771,11.415
				l-3.129-5.421l-5.673,3.275v6.55h6.26v22.83h-6.26v6.551l5.674,3.275l3.13-5.422l19.771,11.414l-3.13,5.422l5.674,3.275
				l5.674-3.275l-3.13-5.422l19.771-11.414l3.131,5.422l5.672-3.275v-6.551h-6.26v-22.83h6.26v-6.55L323,391.747l-3.129,5.421
				L300.099,385.753L300.099,385.753z M335.455,408.355h-6.26v9.264h6.26v17.25l-14.938,8.625l-3.13-5.42l-8.022,4.631l3.13,5.42
				l-14.938,8.625l-14.939-8.625l3.129-5.42l-8.022-4.631l-3.13,5.42l-14.939-8.625v-17.25h6.259v-9.264h-6.259v-17.25l14.938-8.625
				l3.13,5.421l8.022-4.633l-3.129-5.421l14.942-8.625l14.938,8.625l-3.131,5.421l8.021,4.633l3.131-5.421l14.938,8.625V408.355
				L335.455,408.355z M339.028,360.382C339.027,360.382,339.027,360.383,339.028,360.382l-82.926,0.002v-0.001h-14.266
				c0.113,54.789,5.677,95.953,55.733,129.798c49.802-33.848,55.575-75.144,55.702-129.798L339.028,360.382L339.028,360.382z
				 M328.671,395.022v6.55h-6.26v22.83h6.26v6.551L323,434.228l-3.131-5.422l-19.771,11.414l3.13,5.422l-5.674,3.275l-5.674-3.275
				l3.13-5.422l-19.771-11.414l-3.13,5.422l-5.674-3.275v-6.551h6.26v-22.83h-6.26v-6.55l5.673-3.275l3.129,5.421l19.771-11.415
				l-3.13-5.421l5.674-3.276l5.675,3.276l-3.13,5.421l19.771,11.415l3.129-5.421L328.671,395.022L328.671,395.022z M317.387,387.902
				l-8.022-4.633l3.131-5.421l-14.938-8.625l-14.942,8.625l3.129,5.421l-8.022,4.633l-3.13-5.421l-14.938,8.625v17.25h6.259v9.264
				h-6.259v17.25l14.939,8.625l3.13-5.422l8.022,4.631l-3.129,5.422l14.939,8.623l14.938-8.623l-3.129-5.422l8.021-4.631l3.13,5.422
				l14.938-8.625v-17.25h-6.26v-9.264h6.26v-17.25l-14.938-8.625L317.387,387.902L317.387,387.902z"/>
		</g>
	</g>
</g>
</svg>
